<svg width="66" height="62" viewBox="0 0 66 62" fill="none" xmlns="http://www.w3.org/2000/svg">
<rect width="65.5" height="62" rx="31" fill="#004540"/>
<path d="M55.5 34.5625C55.4323 38.0156 54.2474 40.8932 51.9453 43.1953C49.6432 45.4974 46.7656 46.6823 43.3125 46.75H42.5C41.5521 46.75 40.7734 46.4453 40.1641 45.8359C39.5547 45.2266 39.25 44.4479 39.25 43.5C39.25 42.5521 39.5547 41.7734 40.1641 41.1641C40.7734 40.5547 41.5521 40.25 42.5 40.25H43.3125C44.9375 40.1823 46.2917 39.6406 47.375 38.625C48.3906 37.5417 48.9323 36.1875 49 34.5625V33.75H42.5C40.6719 33.6823 39.1484 33.0391 37.9297 31.8203C36.7109 30.6016 36.0677 29.0781 36 27.25V20.75C36.0677 18.9219 36.7109 17.3984 37.9297 16.1797C39.1484 14.9609 40.6719 14.3177 42.5 14.25H49C50.8281 14.3177 52.3516 14.9609 53.5703 16.1797C54.7891 17.3984 55.4323 18.9219 55.5 20.75V24V27.25V34.5625ZM29.5 34.5625C29.4323 38.0156 28.2474 40.8932 25.9453 43.1953C23.6432 45.4974 20.7656 46.6823 17.3125 46.75H16.5C15.5521 46.75 14.7734 46.4453 14.1641 45.8359C13.5547 45.2266 13.25 44.4479 13.25 43.5C13.25 42.5521 13.5547 41.7734 14.1641 41.1641C14.7734 40.5547 15.5521 40.25 16.5 40.25H17.3125C18.9375 40.1823 20.2917 39.6406 21.375 38.625C22.3906 37.5417 22.9323 36.1875 23 34.5625V33.75H16.5C14.6719 33.6823 13.1484 33.0391 11.9297 31.8203C10.7109 30.6016 10.0677 29.0781 10 27.25V20.75C10.0677 18.9219 10.7109 17.3984 11.9297 16.1797C13.1484 14.9609 14.6719 14.3177 16.5 14.25H23C24.8281 14.3177 26.3516 14.9609 27.5703 16.1797C28.7891 17.3984 29.4323 18.9219 29.5 20.75V24V27.25V34.5625Z" fill="white"/>
</svg>
